# xmcd
#
# Track frame offsets:
#	150
#	16290
#	42000
#	63917
#	79250
#	97042
#	116750
#	132917
#	147452
#	161282
#	184402
#	208162
#	223235
#
# Disc length: 3189 seconds
#
# Revision: 1
# Processed by: cddbd v1.4PL0 Copyright (c) Steve Scherf et al.
# Submitted via: audiograbber 1.81.03
#
DISCID=c10c730d
DTITLE=Various Artist - Blues Preservation Review
DYEAR=1997
DGENRE=
TTITLE0=The`Fundamentals - Cadillac Boots
TTITLE1=Chicago Pete - It's My Own Fault
TTITLE2=Dawn`Tylor Blues Project - You Can't Be True
TTITLE3=The`Old Chicago Blues Band - Cat Nap Later
TTITLE4=Maureen`Brown - Down to the Quarter
TTITLE5=Lester`Quitzau - These Days
TTITLE6=Dawn`Tylor Blues Project - Shhot the Devil
TTITLE7=The`Clifford Stevens Band - Said the Wrong Thing
TTITLE8=Rob`Lutes - Rob's Deep River Bllues
TTITLE9=Angel - Sweet Black Angel
TTITLE10=Jonas and the Blues Blooded - Spoonful
TTITLE11=The`Clifford Stevens Band - Ctying My Heart Out
TTITLE12=Dawn Tyler`Watson - Sylvie
EXTD=
EXTT0=
EXTT1=
EXTT2=
EXTT3=
EXTT4=
EXTT5=
EXTT6=
EXTT7=
EXTT8=
EXTT9=
EXTT10=
EXTT11=
EXTT12=
PLAYORDER=
